<mxfile host="app.diagrams.net" modified="2022-07-19T09:01:56.018Z" agent="5.0 (Windows NT 10.0; Win64; x64) AppleWebKit/537.36 (KHTML, like Gecko) Chrome/103.0.0.0 Safari/537.36" etag="79VW2bzhMAsOMcAjFgD5" version="20.1.1" type="github">
  <diagram id="8qPnpiuCbbs5R8ASPxoF" name="Page-1">
    <mxGraphModel dx="1185" dy="635" grid="1" gridSize="10" guides="1" tooltips="1" connect="1" arrows="1" fold="1" page="1" pageScale="1" pageWidth="827" pageHeight="1169" math="0" shadow="0">
      <root>
        <mxCell id="0" />
        <mxCell id="1" parent="0" />
        <mxCell id="9N6gymReKHKZCAYU5Cg0-1" value="입출고&lt;br&gt;담당자" style="shape=umlActor;verticalLabelPosition=bottom;verticalAlign=top;html=1;outlineConnect=0;" vertex="1" parent="1">
          <mxGeometry x="63" y="210" width="30" height="60" as="geometry" />
        </mxCell>
        <mxCell id="9N6gymReKHKZCAYU5Cg0-2" value="현황관리&lt;br&gt;담당자" style="shape=umlActor;verticalLabelPosition=bottom;verticalAlign=top;html=1;outlineConnect=0;" vertex="1" parent="1">
          <mxGeometry x="73" y="580" width="30" height="60" as="geometry" />
        </mxCell>
        <mxCell id="9N6gymReKHKZCAYU5Cg0-3" value="쇼핑몰&lt;br&gt;시스템" style="shape=umlActor;verticalLabelPosition=bottom;verticalAlign=top;html=1;outlineConnect=0;" vertex="1" parent="1">
          <mxGeometry x="733" y="580" width="30" height="60" as="geometry" />
        </mxCell>
        <mxCell id="9N6gymReKHKZCAYU5Cg0-8" value="신상품&lt;br&gt;입고" style="ellipse;whiteSpace=wrap;html=1;" vertex="1" parent="1">
          <mxGeometry x="223" y="200" width="120" height="80" as="geometry" />
        </mxCell>
        <mxCell id="9N6gymReKHKZCAYU5Cg0-9" value="고객 반품&lt;br&gt;입고" style="ellipse;whiteSpace=wrap;html=1;" vertex="1" parent="1">
          <mxGeometry x="223" y="290" width="120" height="80" as="geometry" />
        </mxCell>
        <mxCell id="9N6gymReKHKZCAYU5Cg0-10" value="업체 반품&lt;br&gt;출고" style="ellipse;whiteSpace=wrap;html=1;" vertex="1" parent="1">
          <mxGeometry x="223" y="380" width="120" height="80" as="geometry" />
        </mxCell>
        <mxCell id="9N6gymReKHKZCAYU5Cg0-11" value="고객 상품&lt;br&gt;출고" style="ellipse;whiteSpace=wrap;html=1;" vertex="1" parent="1">
          <mxGeometry x="223" y="470" width="120" height="80" as="geometry" />
        </mxCell>
        <mxCell id="9N6gymReKHKZCAYU5Cg0-15" value="" style="endArrow=none;html=1;rounded=0;exitX=0;exitY=0.5;exitDx=0;exitDy=0;" edge="1" parent="1" source="9N6gymReKHKZCAYU5Cg0-9">
          <mxGeometry width="50" height="50" relative="1" as="geometry">
            <mxPoint x="83" y="340" as="sourcePoint" />
            <mxPoint x="93" y="240" as="targetPoint" />
          </mxGeometry>
        </mxCell>
        <mxCell id="9N6gymReKHKZCAYU5Cg0-17" value="" style="endArrow=none;html=1;rounded=0;" edge="1" parent="1" source="9N6gymReKHKZCAYU5Cg0-1" target="9N6gymReKHKZCAYU5Cg0-8">
          <mxGeometry width="50" height="50" relative="1" as="geometry">
            <mxPoint x="333" y="400" as="sourcePoint" />
            <mxPoint x="383" y="350" as="targetPoint" />
          </mxGeometry>
        </mxCell>
        <mxCell id="9N6gymReKHKZCAYU5Cg0-19" value="" style="endArrow=none;html=1;rounded=0;" edge="1" parent="1" source="9N6gymReKHKZCAYU5Cg0-2">
          <mxGeometry width="50" height="50" relative="1" as="geometry">
            <mxPoint x="173" y="660" as="sourcePoint" />
            <mxPoint x="223" y="610" as="targetPoint" />
          </mxGeometry>
        </mxCell>
        <mxCell id="9N6gymReKHKZCAYU5Cg0-20" value="" style="endArrow=none;html=1;rounded=0;exitX=0.004;exitY=0.418;exitDx=0;exitDy=0;exitPerimeter=0;" edge="1" parent="1" source="9N6gymReKHKZCAYU5Cg0-11">
          <mxGeometry width="50" height="50" relative="1" as="geometry">
            <mxPoint x="333" y="400" as="sourcePoint" />
            <mxPoint x="93" y="240" as="targetPoint" />
          </mxGeometry>
        </mxCell>
        <mxCell id="9N6gymReKHKZCAYU5Cg0-21" value="" style="endArrow=none;html=1;rounded=0;exitX=0;exitY=0.5;exitDx=0;exitDy=0;" edge="1" parent="1" source="9N6gymReKHKZCAYU5Cg0-10">
          <mxGeometry width="50" height="50" relative="1" as="geometry">
            <mxPoint x="333" y="400" as="sourcePoint" />
            <mxPoint x="93" y="240" as="targetPoint" />
          </mxGeometry>
        </mxCell>
        <mxCell id="9N6gymReKHKZCAYU5Cg0-25" value="&amp;lt;&amp;lt;include&amp;gt;&amp;gt;" style="endArrow=blockThin;dashed=1;html=1;rounded=0;entryX=0;entryY=0.5;entryDx=0;entryDy=0;targetPerimeterSpacing=0;strokeWidth=1;endFill=1;" edge="1" parent="1" target="9N6gymReKHKZCAYU5Cg0-23">
          <mxGeometry width="50" height="50" relative="1" as="geometry">
            <mxPoint x="343" y="240" as="sourcePoint" />
            <mxPoint x="393" y="190" as="targetPoint" />
          </mxGeometry>
        </mxCell>
        <mxCell id="9N6gymReKHKZCAYU5Cg0-26" value="&#xa;&#xa;&#xa;&lt;&lt;System&gt;&gt;&#xa;재고관리 시스템" style="swimlane;startSize=0;" vertex="1" parent="1">
          <mxGeometry x="173" y="140" width="490" height="550" as="geometry">
            <mxRectangle x="180" y="30" width="50" height="40" as="alternateBounds" />
          </mxGeometry>
        </mxCell>
        <mxCell id="9N6gymReKHKZCAYU5Cg0-23" value="현황 등록" style="ellipse;whiteSpace=wrap;html=1;" vertex="1" parent="9N6gymReKHKZCAYU5Cg0-26">
          <mxGeometry x="280" y="140" width="120" height="80" as="geometry" />
        </mxCell>
        <mxCell id="9N6gymReKHKZCAYU5Cg0-14" value="현황 조회" style="ellipse;whiteSpace=wrap;html=1;" vertex="1" parent="9N6gymReKHKZCAYU5Cg0-26">
          <mxGeometry x="50" y="430" width="120" height="80" as="geometry" />
        </mxCell>
        <mxCell id="9N6gymReKHKZCAYU5Cg0-6" value="현황 반영" style="ellipse;whiteSpace=wrap;html=1;" vertex="1" parent="9N6gymReKHKZCAYU5Cg0-26">
          <mxGeometry x="280" y="430" width="120" height="80" as="geometry" />
        </mxCell>
        <mxCell id="9N6gymReKHKZCAYU5Cg0-33" value="&amp;lt;&amp;lt;include&amp;gt;&amp;gt;" style="endArrow=blockThin;dashed=1;html=1;rounded=0;targetPerimeterSpacing=0;strokeWidth=1;endFill=1;exitX=0.5;exitY=1;exitDx=0;exitDy=0;" edge="1" parent="9N6gymReKHKZCAYU5Cg0-26" source="9N6gymReKHKZCAYU5Cg0-23" target="9N6gymReKHKZCAYU5Cg0-6">
          <mxGeometry width="50" height="50" relative="1" as="geometry">
            <mxPoint x="180.00000000000023" y="380" as="sourcePoint" />
            <mxPoint x="307.57359312880703" y="218.2842712474618" as="targetPoint" />
          </mxGeometry>
        </mxCell>
        <mxCell id="9N6gymReKHKZCAYU5Cg0-27" value="&amp;lt;&amp;lt;include&amp;gt;&amp;gt;" style="endArrow=blockThin;dashed=1;html=1;rounded=0;targetPerimeterSpacing=0;strokeWidth=1;endFill=1;exitX=1;exitY=0.5;exitDx=0;exitDy=0;entryX=0;entryY=0.5;entryDx=0;entryDy=0;" edge="1" parent="1" source="9N6gymReKHKZCAYU5Cg0-9" target="9N6gymReKHKZCAYU5Cg0-23">
          <mxGeometry width="50" height="50" relative="1" as="geometry">
            <mxPoint x="353" y="250" as="sourcePoint" />
            <mxPoint x="463" y="240" as="targetPoint" />
          </mxGeometry>
        </mxCell>
        <mxCell id="9N6gymReKHKZCAYU5Cg0-30" value="&amp;lt;&amp;lt;include&amp;gt;&amp;gt;" style="endArrow=blockThin;dashed=1;html=1;rounded=0;targetPerimeterSpacing=0;strokeWidth=1;endFill=1;exitX=1;exitY=0.5;exitDx=0;exitDy=0;entryX=0;entryY=1;entryDx=0;entryDy=0;" edge="1" parent="1" source="9N6gymReKHKZCAYU5Cg0-10" target="9N6gymReKHKZCAYU5Cg0-23">
          <mxGeometry width="50" height="50" relative="1" as="geometry">
            <mxPoint x="353.0000000000023" y="340" as="sourcePoint" />
            <mxPoint x="483" y="330" as="targetPoint" />
          </mxGeometry>
        </mxCell>
        <mxCell id="9N6gymReKHKZCAYU5Cg0-31" value="&amp;lt;&amp;lt;include&amp;gt;&amp;gt;" style="endArrow=blockThin;dashed=1;html=1;rounded=0;targetPerimeterSpacing=0;strokeWidth=1;endFill=1;entryX=0;entryY=1;entryDx=0;entryDy=0;exitX=1;exitY=0.5;exitDx=0;exitDy=0;" edge="1" parent="1" source="9N6gymReKHKZCAYU5Cg0-11" target="9N6gymReKHKZCAYU5Cg0-23">
          <mxGeometry width="50" height="50" relative="1" as="geometry">
            <mxPoint x="363.0000000000023" y="350" as="sourcePoint" />
            <mxPoint x="493" y="340" as="targetPoint" />
          </mxGeometry>
        </mxCell>
        <mxCell id="9N6gymReKHKZCAYU5Cg0-32" value="" style="endArrow=none;html=1;rounded=0;targetPerimeterSpacing=0;strokeWidth=1;exitX=1;exitY=0.5;exitDx=0;exitDy=0;" edge="1" parent="1" source="9N6gymReKHKZCAYU5Cg0-6" target="9N6gymReKHKZCAYU5Cg0-3">
          <mxGeometry width="50" height="50" relative="1" as="geometry">
            <mxPoint x="403" y="600" as="sourcePoint" />
            <mxPoint x="453" y="550" as="targetPoint" />
          </mxGeometry>
        </mxCell>
      </root>
    </mxGraphModel>
  </diagram>
</mxfile>
